<svg id="Ebene_1" xmlns="http://www.w3.org/2000/svg" viewBox="-100 0 270 240" width="100" height="100">
  <style>
    .st0{fill-rule:evenodd;clip-rule:evenodd}
    .st1{fill:#ff7121}
    .st2{fill:#000001}
    .st3{fill:#398e42}
    .st4{fill:#005d9c}
  </style>
  <path class="st1" d="M0 0c1.2.2 2.5.8 3.5 1.4 6.3 3.3 8.6 11.2 10.2 17.6.7 2.8 1.4 5.6 1.8 8.6.7 6.4.7 13.2 2.5 19 1.1 3.4 2.9 6.6 4.4 9.8 2.2 4.5 4 9.1 5.3 14 1.1 4.1 1.2 9.4-.4 13.2-.6 1.4-1.4 2.7-2.2 4.1-.6 1-1.5 2.9-2.9 3.1-.9.2-2.9-1.3-3.7-1.7-4.5-2.5-9.7-4.7-12.8-9.3-1.1-1.6-1.8-3.3-2.7-5-1.2-2.2-2.3-4.4-3.5-6.7-1-1.8-1.9-3.6-2.9-5.4-.4-.9-1-1.7-1.3-2.7-.4-1.6-.2-3.7-.4-5.4-.3-2.4-1.2-4.6-1.9-6.8-2.2-6.9-5.6-14-5.9-21.7-.2-7.6 4.5-14.8 8.3-20.4.6-.9 3.4-5.7 4.3-5.7z"/>
  <path class="st2" d="M23.3 93.7c2.2 0 5.4-.1 7.1.8.9.5 1.2 1.3 1.9 2 1.5 1.7 3.9 3.5 4.6 5.6.5 1.4.5 3.2.5 4.9 0 5.8-1.5 16.6-7.8 17.8-7.5 1.5-19.6-7.5-21.5-14.3-1.5-5.1.9-9.8 4.6-12.8 2.2-1.8 6.4-3.7 9.5-3.7.3-.1.7-.2 1.1-.3"/>
  <path class="st3" d="M49.7 104.6c2.7 0 5.2.2 7.6.7 1.4.2 2.7.4 4 .8 2.5.8 4.9 1.9 7.3 2.9 2.3.9 4.6 1.7 7 2.4 5.3 1.6 10.9 2.8 16.2 4.6 3 1 5.9 2.3 8.8 3.5 2.7 1.1 5.4 2 8.2 3 5.1 1.7 10.5 3 15.9 4.3 4 1 8.1 2 12.1 3 6.8 1.6 13.3 3.8 19.6 6.4 1.2.5 2.9.6 3.8 1.7 1.2 1.5.3 4.2-.2 5.8-.6 1.9-2 3.7-3.9 4.5-4.4 2-11.7 1.1-16.5.3-2.2-.4-4.3-.7-6.4-1.2l-13.2-3c-14-3.3-28.1-6.5-42.1-9.8-4-.9-8.1-1.9-12.1-2.8-4.8-1-9.7-1.9-13.9-4.2-2.4-1.3-8-4.9-9-7.6-1-2.9.1-11.6 1.8-13.6.8-.9 2.2-1.5 3.5-1.5.5 0 1-.1 1.5-.2"/>
  <path class="st4" d="M-8.6 108.5c2.6 0 7.8.2 9.5 1.7 4.9 4.2-1.3 16-3.7 19.9-1.5 2.5-3.9 4.7-6.1 6.6-2.1 1.7-4 3.5-6.1 5.1-1.7 1.3-3.6 2.8-5.1 4.5-2.2 2.5-4.2 5.2-6.5 7.7-4.3 4.6-9.2 8.7-13.2 13.7-1.5 1.9-2.6 3.9-4 5.9-2.8 4-6.3 8.2-10.4 11-4.7 3.2-10.4 4.3-16.5 2.7-1.6-.4-3.4-.7-4.7-1.8-.7-.6-.5-2-.5-3 0-2.2.3-4.3.7-6.3 1.1-5.8 2.9-10.6 6.1-15.4 6.2-9.2 15.2-16.7 23.8-23.5 3.6-2.8 7.3-5.6 10.9-8.3 2.9-2.1 5.8-4.3 8.5-6.5s5.5-4.5 8.1-6.9c.7-.7 1.4-1.5 2-2.3.3-.5.6-.9.9-1.4.8-1 2-1.3 3-2 .5-.3.8-.8 1.3-1.1.8 0 1.4-.1 2-.3"/>
  <path d="M15.5 126.7l3 .3c3.5.3 6.5 1.3 8.6 4.1 4.2 5.6.9 14.1.4 20.5-.2 3.1.1 6.4.2 9.6 0 .6-.1 1.3-.1 1.9-.1 2.5-.1 4.9-.3 7.3-.5 4.9-1 9.5-1.7 14.3-.8 5-1.6 9.9-2.4 14.9-.6 4-1.1 8-1.7 12-.6 4.2.1 10.2-4.8 11.6-1.4.4-3 .4-4.6.3-3.5-.2-10.7-1.9-11.1-5.9-.1-1 0-2.1.2-3 .3-2.7.7-5.4 1.1-8 1.7-10.4 4.8-20.1 6.5-30.6 1.6-12 3.2-24.1 4.9-36.1l1.2-9.6c.2-1.2.2-2.6.6-3.6"/>
</svg>
