<svg id="Ebene_1" xmlns="http://www.w3.org/2000/svg" viewBox="0 0 454 330.5"><style>.st0{fill-rule:evenodd;clip-rule:evenodd}.st1{fill:#ff7121}.st2{fill:#000001}.st3{fill:#398e42}.st4{fill:#005d9c}</style><path d="M0 324.8c1.2.5 2.4.6 3.7.6 2 0 4.6-.9 4.6-3.7 0-4.3-6.4-4-6.4-6.4 0-1.7 1.2-2.2 2.8-2.2.9 0 2.1.2 2.9.6l.2-1.4c-1.2-.4-2.5-.6-3.2-.6-2.2 0-4.3 1-4.3 3.6 0 3.8 6.3 3.3 6.3 6.4 0 1.5-1.4 2.3-2.9 2.3-1.3 0-2.4-.3-3.4-.8l-.3 1.6z"/><path class="st0" d="M11.5 318.6c0 3.6 1.9 6.8 6.1 6.8 4.2 0 6.1-3.3 6.1-6.8 0-3.6-1.9-6.8-6.1-6.8-4.3 0-6.1 3.3-6.1 6.8m1.7 0c0-3 1.5-5.5 4.3-5.5s4.3 2.4 4.3 5.5c0 3-1.5 5.5-4.3 5.5s-4.3-2.5-4.3-5.5"/><path d="M28 305.9h1.6v19.2H28zm17.2 6.2h-1.6v7.2c0 2.2-.9 4.8-3.9 4.8-2.2 0-3.1-1.6-3.1-4v-7.9H35v8.4c0 2.9 1.2 5 4.5 5 2.7 0 3.7-1.5 4.2-2.6v2.3h1.6c-.1-1-.1-2.1-.1-3.1v-10.1zm11.1 0h-3v-3.7l-1.6.6v3.2h-2.6v1.4h2.6v7.6c0 2.4.1 4.4 3 4.4.8 0 1.6-.2 2-.4l-.1-1.3c-.5.2-.9.3-1.5.3-1.3 0-1.7-1-1.7-2.2v-8.5h3v-1.4z"/><path class="st0" d="M60.5 325.2h1.6v-13.1h-1.6v13.1zm1.6-18.8h-1.6v2.2h1.6v-2.2zm4.4 12.2c0 3.6 1.9 6.8 6.1 6.8 4.2 0 6.1-3.3 6.1-6.8 0-3.6-1.9-6.8-6.1-6.8-4.2 0-6.1 3.3-6.1 6.8m1.8 0c0-3 1.5-5.5 4.3-5.5s4.3 2.4 4.3 5.5c0 3-1.5 5.5-4.3 5.5s-4.3-2.5-4.3-5.5"/><path d="M83.1 325.2h1.6V318c0-2.2.9-4.8 3.9-4.8 2.2 0 3.1 1.6 3.1 4v7.9h1.6v-8.4c0-2.9-1.2-5-4.5-5-2.7 0-3.7 1.5-4.2 2.6h-.1V312H83c.1 1.1.1 2.1.1 3.1v10.1zm14.4-.4c1.2.5 2.4.6 3.7.6 2 0 4.6-.9 4.6-3.7 0-4.3-6.4-4-6.4-6.4 0-1.7 1.2-2.2 2.8-2.2.9 0 2.1.2 2.9.6l.2-1.4c-1.2-.4-2.5-.6-3.2-.6-2.2 0-4.3 1-4.3 3.6 0 3.8 6.3 3.3 6.3 6.4 0 1.5-1.4 2.3-2.9 2.3-1.3 0-2.4-.3-3.4-.8l-.3 1.6zm19.6.4h1.6v-11.7h2.9v-1.4h-2.9V311c0-1.6-.2-3.9 2-3.9.5 0 .9.1 1.3.3l.1-1.4c-.3-.2-1-.3-1.5-.3-3.4 0-3.5 2.8-3.5 5.5v.9h-2.6v1.4h2.6v11.7z"/><path class="st0" d="M124.8 318.6c0 3.6 1.9 6.8 6.1 6.8 4.2 0 6.1-3.3 6.1-6.8 0-3.6-1.9-6.8-6.1-6.8-4.2 0-6.1 3.3-6.1 6.8m1.8 0c0-3 1.5-5.5 4.3-5.5s4.3 2.4 4.3 5.5c0 3-1.5 5.5-4.3 5.5s-4.3-2.5-4.3-5.5"/><path d="M141.4 325.2h1.6v-6.5c0-2.4.7-5.2 3.3-5.2.4 0 .8 0 1.2.2V312c-.3-.1-.7-.2-1.1-.2-1.7 0-2.8 1.4-3.4 2.8h-.1v-2.5h-1.6c.1.9.1 1.5.1 2.9v10.2zm15.4-.4c1.2.5 2.4.6 3.7.6 2 0 4.6-.9 4.6-3.7 0-4.3-6.4-4-6.4-6.4 0-1.7 1.2-2.2 2.8-2.2.9 0 2 .2 2.9.6l.2-1.4c-1.2-.4-2.5-.6-3.2-.6-2.2 0-4.3 1-4.3 3.6 0 3.8 6.3 3.3 6.3 6.4 0 1.5-1.4 2.3-2.9 2.3-1.3 0-2.4-.3-3.4-.8l-.3 1.6zm22.6-12.7h-1.6v7.2c0 2.2-.9 4.8-3.9 4.8-2.2 0-3.1-1.6-3.1-4v-7.9h-1.6v8.4c0 2.9 1.2 5 4.5 5 2.7 0 3.7-1.5 4.2-2.6h.1v2.3h1.6c-.1-1-.1-2.1-.1-3.1v-10.1zm4.2 12.7c1.2.5 2.4.6 3.7.6 2 0 4.6-.9 4.6-3.7 0-4.3-6.4-4-6.4-6.4 0-1.7 1.2-2.2 2.8-2.2.9 0 2 .2 2.9.6l.2-1.4c-1.2-.4-2.5-.6-3.2-.6-2.2 0-4.3 1-4.3 3.6 0 3.8 6.3 3.3 6.3 6.4 0 1.5-1.4 2.3-2.9 2.3-1.3 0-2.4-.3-3.4-.8l-.3 1.6zm18.1-12.7h-3v-3.7l-1.6.6v3.2h-2.6v1.4h2.6v7.6c0 2.4.1 4.4 3 4.4.8 0 1.6-.2 2-.4l-.1-1.3c-.5.2-.9.3-1.5.3-1.3 0-1.7-1-1.7-2.2v-8.5h3v-1.4z"/><path class="st0" d="M213.5 325.2h1.6c-.1-.9-.1-1.7-.1-2.7v-5.8c0-3.4-1.4-4.9-4.6-4.9-1.2 0-2.8.4-3.8.9v1.6c1.2-.8 2.5-1.1 3.8-1.1 2.2 0 3 1.1 3 3.4v.7h-.4c-3.4 0-8 .2-8 4.6 0 1.2.6 3.7 4.3 3.7 1.6 0 3.4-.8 4.2-2.4h.1v2zm-.2-5.8c0 1.4-.1 4.7-3.9 4.7-1.5 0-2.7-.6-2.7-2.4 0-2.9 3.3-3.2 6.1-3.2h.5v.9zm6.8 5.8h1.6v-13.1h-1.6v13.1zm1.6-18.8h-1.6v2.2h1.6v-2.2z"/><path d="M227.1 325.2h1.6V318c0-2.2.9-4.8 3.9-4.8 2.2 0 3.1 1.6 3.1 4v7.9h1.6v-8.4c0-2.9-1.2-5-4.5-5-2.7 0-3.7 1.5-4.2 2.6h-.1V312H227c.1 1.1.1 2.1.1 3.1v10.1z"/><path class="st0" d="M250.2 325.2h1.6c-.1-.9-.1-1.7-.1-2.7v-5.8c0-3.4-1.4-4.9-4.6-4.9-1.2 0-2.8.4-3.8.9v1.6c1.2-.8 2.5-1.1 3.8-1.1 2.2 0 3 1.1 3 3.4v.7h-.3c-3.4 0-8 .2-8 4.6 0 1.2.6 3.7 4.3 3.7 1.6 0 3.4-.8 4.2-2.4h.1v2zm-.2-5.8c0 1.4-.1 4.7-3.9 4.7-1.5 0-2.7-.6-2.7-2.4 0-2.9 3.3-3.2 6.1-3.2h.5v.9zm6.7 5.8h1.6v-2.1h.1c.9 1.7 2.2 2.4 4.1 2.4 3.6 0 5.4-3 5.4-6.8 0-4-1.5-6.8-5.4-6.8-2.6 0-3.8 1.9-4.1 2.5h-.1v-8.3h-1.6v19.1zm9.3-6.6c0 2.5-.8 5.5-3.9 5.5-2.9 0-3.9-3.1-3.9-5.5s.9-5.5 3.9-5.5c3.1.1 3.9 3 3.9 5.5"/><path d="M272.4 305.9h1.6v19.2h-1.6z"/><path class="st0" d="M288.2 323.1c-.8.5-2.5 1-3.7 1-2.8 0-4.3-2.2-4.3-5h8.9v-.8c0-3.5-1.5-6.5-5.2-6.5-3.3 0-5.5 2.8-5.5 6.8 0 3.9 1.6 6.8 5.9 6.8 1.2 0 2.7-.3 3.8-.7v-1.6zm-8-5.4c0-2.2 1.5-4.5 3.8-4.5 2.4 0 3.3 2.3 3.3 4.5h-7.1zm29.2-11.8h-1.6v8.3h-.1c-.2-.6-1.5-2.5-4.1-2.5-3.8 0-5.4 2.9-5.4 6.8s1.8 6.8 5.4 6.8c1.9 0 3.2-.7 4.1-2.4h.1v2.1h1.6v-19.1zm-9.4 12.7c0-2.5.8-5.5 3.9-5.5 2.9 0 3.9 3.1 3.9 5.5s-1 5.5-3.9 5.5c-3.1 0-3.9-2.9-3.9-5.5m23.4 4.5c-.8.5-2.5 1-3.7 1-2.8 0-4.3-2.2-4.3-5h8.9v-.8c0-3.5-1.5-6.5-5.2-6.5-3.3 0-5.5 2.8-5.5 6.8 0 3.9 1.6 6.8 5.9 6.8 1.2 0 2.7-.3 3.8-.7v-1.6zm-8-5.4c0-2.2 1.5-4.5 3.8-4.5 2.4 0 3.3 2.3 3.3 4.5h-7.1z"/><path d="M337.9 312.1h-1.7l-3.8 11.3h-.1l-3.6-11.3H327l4.4 13.1h1.9z"/><path class="st0" d="M350.2 323.1c-.8.5-2.5 1-3.7 1-2.8 0-4.3-2.2-4.3-5h8.9v-.8c0-3.5-1.5-6.5-5.2-6.5-3.3 0-5.5 2.8-5.5 6.8 0 3.9 1.6 6.8 5.9 6.8 1.2 0 2.7-.3 3.8-.7v-1.6zm-7.9-5.4c0-2.2 1.5-4.5 3.8-4.5 2.4 0 3.3 2.3 3.3 4.5h-7.1z"/><path d="M355.6 305.9h1.6v19.2h-1.6z"/><path class="st0" d="M361.6 318.6c0 3.6 1.9 6.8 6.1 6.8 4.2 0 6.1-3.3 6.1-6.8 0-3.6-1.9-6.8-6.1-6.8-4.2 0-6.1 3.3-6.1 6.8m1.8 0c0-3 1.5-5.5 4.3-5.5s4.3 2.4 4.3 5.5c0 3-1.5 5.5-4.3 5.5s-4.3-2.5-4.3-5.5m14.6 11.9h1.6v-7.6h.1c.8 1.7 2 2.5 4.1 2.5 3.6 0 5.4-3 5.4-6.8 0-4-1.5-6.8-5.4-6.8-2.8 0-3.8 2-4.2 2.7h-.1l.1-2.4H378v18.4zm9.4-11.9c0 2.5-.8 5.5-3.9 5.5-2.9 0-3.9-3.1-3.9-5.5s1-5.5 3.9-5.5c3.1.1 3.9 3 3.9 5.5"/><path d="M411.2 325.2v-9c0-2.5-1.5-4.4-4.1-4.4-2 0-3.6 1.2-4.2 2.8h-.1c-.4-2.3-2.3-2.8-3.5-2.8-2.8 0-3.6 1.6-4.1 2.5h-.1v-2.2h-1.6c.1 1.1.1 2.1.1 3.1v10h1.6V318c0-3.3 1.7-4.8 3.5-4.8 2.1 0 2.8 1.5 2.8 3.3v8.7h1.6V318c0-3.3 1.7-4.8 3.5-4.8 2.1 0 2.8 1.5 2.8 3.3v8.7h1.8z"/><path class="st0" d="M425.2 323.1c-.8.5-2.5 1-3.7 1-2.8 0-4.3-2.2-4.3-5h8.9v-.8c0-3.5-1.5-6.5-5.2-6.5-3.3 0-5.5 2.8-5.5 6.8 0 3.9 1.6 6.8 5.9 6.8 1.2 0 2.7-.3 3.8-.7v-1.6zm-8-5.4c0-2.2 1.5-4.5 3.8-4.5 2.4 0 3.3 2.3 3.3 4.5h-7.1z"/><path d="M430.6 325.2h1.6V318c0-2.2.9-4.8 3.9-4.8 2.2 0 3.1 1.6 3.1 4v7.9h1.6v-8.4c0-2.9-1.2-5-4.5-5-2.7 0-3.7 1.5-4.2 2.6h-.1V312h-1.6c.1 1.1.1 2.1.1 3.1v10.1zm21.2-13.1h-3v-3.7l-1.6.6v3.2h-2.6v1.4h2.6v7.6c0 2.4.1 4.4 3 4.4.8 0 1.6-.2 2-.4l-.1-1.3c-.5.2-.9.3-1.5.3-1.3 0-1.7-1-1.7-2.2v-8.5h3v-1.4z"/><path class="st0" d="M26.4 276.7c-1.4 1.2-5.9 3.2-9.8 3.2-5.5 0-10.5-4.3-10.5-10.6h22.7c0-10.2-3.4-17.9-14-17.9-9 0-14.9 6.7-14.9 16.1 0 10.3 5.2 17.2 16.4 17.2 5.2 0 7.8-1.2 10-2.1v-5.9zM6.2 264.9c.4-4.1 2.8-8.8 8.5-8.8 5 0 7.9 4 7.9 8.8H6.2z"/><path d="M37.9 283.8h5.8v-14.7c0-7.7 3-13.1 9.6-13.1 5.1.3 6.7 3.9 6.7 11.3v16.4h6V265c0-8.5-3.7-13.6-11.9-13.6-4.4 0-8.7 2.2-10.4 5.8h-.1v-5h-5.7v31.6z"/><path class="st0" d="M101.5 276.7c-1.4 1.2-5.9 3.2-9.8 3.2-5.5 0-10.5-4.3-10.5-10.6h22.7c0-10.2-3.4-17.9-14-17.9-9 0-14.9 6.7-14.9 16.1 0 10.3 5.2 17.2 16.4 17.2 5.2 0 7.8-1.2 10-2.1v-5.9zm-20.2-11.8c.4-4.1 2.8-8.8 8.5-8.8 5 0 7.9 4 7.9 8.8H81.3z"/><path d="M113 283.8h5.8v-14.4c0-8 3.4-12.9 8.6-12.9 1 0 2.2.1 3.2.6v-5.2c-1.2-.2-2.1-.4-3.9-.4-3.4 0-6.7 2.4-8.3 5.7h-.1v-4.9H113v31.5z"/><path class="st0" d="M166.5 252.1h-5.4v4.7h-.1c-1.7-3.4-4.9-5.5-10.5-5.5-9.6 0-14.2 8.7-14.2 16.9s4.5 15.6 13.6 15.6c4 0 8.2-1.6 10.6-4.9h.1v3.1c0 6.7-3.7 10.9-9.8 10.9-4.3 0-7-.8-11.5-2.9l-.6 5.4c5.1 1.7 8 2.2 11.4 2.2 11.4 0 16.4-5.5 16.4-15.2v-30.3zm-15.1 27c-5.5 0-8.8-5.2-8.8-11.2 0-5.4 2.9-11.8 8.8-11.8 6.2 0 9.3 5.7 9.3 12.3 0 5.8-3.8 10.7-9.3 10.7"/><path d="M176.8 297.2c1.1.2 2.1.4 4 .4 7.7 0 10-7 12.2-13.1l11.7-32.4h-5.9l-8.7 26.3h-.1l-8.5-26.3H175l10.8 29.6c.4 1.1 1.1 2.7 1.1 3.4 0 .6-1.7 7.8-7 7.8-1 0-2-.3-2.7-.5l-.4 4.8zm36.1-13.4h11.2v-13.7c0-7 2.4-10.1 7-10.1 3 0 5.2 2.1 5.2 8.1v15.7h11.2v-20.2c0-6.7-3.5-12.9-12.4-12.9-5.1 0-9.6 2.1-11.8 6.7h-.1v-6H213v32.4z"/><path class="st0" d="M288.1 283.8c-.5-2.6-.6-5.1-.6-7.7V264c0-9.9-7.2-13.4-15.4-13.4-4.8 0-9 .7-12.9 2.3l.2 7.6c3.1-1.7 6.7-2.4 10.3-2.4 4 0 7.3 1.2 7.4 5.6-1.4-.2-3.4-.4-5.2-.4-6 0-16.7 1.2-16.7 11.1 0 7 5.7 10.2 12.1 10.2 4.6 0 7.7-1.8 10.3-5.8h.1c0 1.7.2 3.4.2 5.1h10.2zm-22.6-10.2c0-3.1 3-4.3 6.8-4.3 1.7 0 3.3.1 4.7.2 0 3.8-2.7 7.7-6.9 7.7-2.6-.1-4.6-1.4-4.6-3.6"/><path d="M331.3 251.4h-11.2v13.7c0 7-2.4 10.1-7 10.1-3.1 0-5.2-2.1-5.2-8.2v-15.7h-11.2v20.2c0 6.7 3.5 12.9 12.4 12.9 5.1 0 9.6-2.1 11.8-6.7h.1v6h10.2v-32.3zm6.9 7.8h6.4v13.2c0 7.7 2.4 12.1 12.4 12.1 2.8 0 4.9-.4 7-.6l-.4-7.3c-1.1.2-2.3.4-3.4.4-3.5 0-4.5-2-4.5-5.9v-11.9h7.8v-7.8h-7.8v-10.7l-11 3.4v7.3h-6.6v7.8z"/><path class="st0" d="M372.8 283.8H384v-32.4h-11.2v32.4zm11.2-45.9h-11.2v8.2H384v-8.2z"/><path d="M420 252.5c-2.6-1.2-5.5-1.8-8.9-1.8-10.7 0-18.9 6.2-18.9 17 0 10.7 8.2 16.9 18.9 16.9 3 0 6.3-.5 9.1-1.4l-.2-8.3c-1.9 1-4.4 1.6-7 1.6-4.9 0-9.2-3.4-9.2-8.5 0-5.6 3.7-9 8.6-9 2.7 0 4.7.6 6.8 1.8l.8-8.3zm7.1 30.5c3.3 1.1 6.7 1.6 11.8 1.6 7.3 0 15.1-2.2 15.1-10.8 0-12.3-16.7-8.3-16.7-13.4 0-1.8 2.7-2.2 5.2-2.2 2.8 0 6.3.7 8.7 2.2l.9-7.8c-3.6-1.4-7.5-1.9-11.4-1.9-6.5 0-13.8 3-13.8 10.5 0 11.7 15.9 7.8 15.9 13.3 0 2.2-2.2 2.6-4.5 2.6-4 0-7.9-1.1-10.5-2.2l-.7 8.1z"/><path class="st1" d="M288 0c1.2.2 2.5.8 3.5 1.4 6.3 3.3 8.6 11.2 10.2 17.6.7 2.8 1.4 5.6 1.8 8.6.7 6.4.7 13.2 2.5 19 1.1 3.4 2.9 6.6 4.4 9.8 2.2 4.5 4 9.1 5.3 14 1.1 4.1 1.2 9.4-.4 13.2-.6 1.4-1.4 2.7-2.2 4.1-.6 1-1.5 2.9-2.9 3.1-.9.2-2.9-1.3-3.7-1.7-4.5-2.5-9.7-4.7-12.8-9.3-1.1-1.6-1.8-3.3-2.7-5-1.2-2.2-2.3-4.4-3.5-6.7-1-1.8-1.9-3.6-2.9-5.4-.4-.9-1-1.7-1.3-2.7-.4-1.6-.2-3.7-.4-5.4-.3-2.4-1.2-4.6-1.9-6.8-2.2-6.9-5.6-14-5.9-21.7-.2-7.6 4.5-14.8 8.3-20.4.6-.9 3.4-5.7 4.3-5.7z"/><path class="st2" d="M311.3 93.7c2.2 0 5.4-.1 7.1.8.9.5 1.2 1.3 1.9 2 1.5 1.7 3.9 3.5 4.6 5.6.5 1.4.5 3.2.5 4.9 0 5.8-1.5 16.6-7.8 17.8-7.5 1.5-19.6-7.5-21.5-14.3-1.5-5.1.9-9.8 4.6-12.8 2.2-1.8 6.4-3.7 9.5-3.7.3-.1.7-.2 1.1-.3"/><path class="st3" d="M337.7 104.6c2.7 0 5.2.2 7.6.7 1.4.2 2.7.4 4 .8 2.5.8 4.9 1.9 7.3 2.9 2.3.9 4.6 1.7 7 2.4 5.3 1.6 10.9 2.8 16.2 4.6 3 1 5.9 2.3 8.8 3.5 2.7 1.1 5.4 2 8.2 3 5.1 1.7 10.5 3 15.9 4.3 4 1 8.1 2 12.1 3 6.8 1.6 13.3 3.8 19.6 6.4 1.2.5 2.9.6 3.8 1.7 1.2 1.5.3 4.2-.2 5.8-.6 1.9-2 3.7-3.9 4.5-4.4 2-11.7 1.1-16.5.3-2.2-.4-4.3-.7-6.4-1.2l-13.2-3c-14-3.3-28.1-6.5-42.1-9.8-4-.9-8.1-1.9-12.1-2.8-4.8-1-9.7-1.9-13.9-4.2-2.4-1.3-8-4.9-9-7.6-1-2.9.1-11.6 1.8-13.6.8-.9 2.2-1.5 3.5-1.5.5 0 1-.1 1.5-.2"/><path class="st4" d="M279.6 108.5c2.6 0 7.8.2 9.5 1.7 4.9 4.2-1.3 16-3.7 19.9-1.5 2.5-3.9 4.7-6.1 6.6-2.1 1.7-4 3.5-6.1 5.1-1.7 1.3-3.6 2.8-5.1 4.5-2.2 2.5-4.2 5.2-6.5 7.7-4.3 4.6-9.2 8.7-13.2 13.7-1.5 1.9-2.6 3.9-4 5.9-2.8 4-6.3 8.2-10.4 11-4.7 3.2-10.4 4.3-16.5 2.7-1.6-.4-3.4-.7-4.7-1.8-.7-.6-.5-2-.5-3 0-2.2.3-4.3.7-6.3 1.1-5.8 2.9-10.6 6.1-15.4 6.2-9.2 15.2-16.7 23.8-23.5 3.6-2.8 7.3-5.6 10.9-8.3 2.9-2.1 5.8-4.3 8.5-6.5s5.5-4.5 8.1-6.9c.7-.7 1.4-1.5 2-2.3.3-.5.6-.9.9-1.4.8-1 2-1.3 3-2 .5-.3.8-.8 1.3-1.1.8 0 1.4-.1 2-.3"/><path d="M303.5 126.7l3 .3c3.5.3 6.5 1.3 8.6 4.1 4.2 5.6.9 14.1.4 20.5-.2 3.1.1 6.4.2 9.6 0 .6-.1 1.3-.1 1.9-.1 2.5-.1 4.9-.3 7.3-.5 4.9-1 9.5-1.7 14.3-.8 5-1.6 9.9-2.4 14.9-.6 4-1.1 8-1.7 12-.6 4.2.1 10.2-4.8 11.6-1.4.4-3 .4-4.6.3-3.5-.2-10.7-1.9-11.1-5.9-.1-1 0-2.1.2-3 .3-2.7.7-5.4 1.1-8 1.7-10.4 4.8-20.1 6.5-30.6 1.6-12 3.2-24.1 4.9-36.1l1.2-9.6c.2-1.2.2-2.6.6-3.6"/></svg>